#!OML:ASF X:\für Bonn\!DataBase\2005_08_10_Bjorn_Final\c3d\bjorn.ASF
:FULLY-SPECIFIED
:DEGREES
48
root 5.12619 24.3158 5.37783 4.80536 -1.07761 360.092
lowerback 6.39762 0.88817 2.48651
upperback 10.7182 1.14513 1.18315
thorax 7.70032 0.703761 -0.137135
lowerneck 11.1478 -2.15824 -0.469682
upperneck 19.3893 -3.03957 1.35955
head 4.58804 -1.44556 0.531073
rclavicle -1.70955e-014 -7.95139e-016
rhumerus -41.0018 -14.2604 -81.8704
rradius 88.002
rwrist -1.2519
rhand -32.5323 31.3786
rfingers 7.12502
rthumb -5.76267 1.47698
lclavicle -1.70955e-014 -7.95139e-016
lhumerus -37.637 -22.9118 88.657
lradius 75.5865
lwrist 0.96408
lhand -45.0021 -24.1004
lfingers 7.12502
lthumb -17.7857 5.10627
rfemur -23.1013 -7.99756 14.1325
rtibia 39.8601
rfoot 15.8089 5.29216
rtoes -33.1968
lfemur -17.1273 8.81475 -15.4181
ltibia 32.2255
lfoot 19.6743 -3.0298
ltoes -14.7438
49
root 5.12965 24.3194 5.50709 5.02809 -1.18578 360.18
lowerback 7.19291 0.876574 2.37738
upperback 10.9504 1.14747 1.18216
thorax 7.50208 0.696507 -0.0886737
lowerneck 11.7788 -2.1834 -0.356336
upperneck 18.8369 -3.03034 1.19169
head 4.26024 -1.44415 0.463222
rclavicle -5.96354e-015 -1.27222e-014
rhumerus -40.7121 -14.3069 -82.0875
rradius 85.972
rwrist -1.39335
rhand -32.3967 31.1937
rfingers 7.12502
rthumb -5.63174 1.28849
lclavicle -5.96354e-015 -1.27222e-014
lhumerus -37.4596 -22.9146 88.8164
lradius 74.1335
lwrist 1.05122
lhand -45.1508 -24.5525
lfingers 7.12502
lthumb -17.9288 4.64106
rfemur -24.3712 -7.9574 14.2774
rtibia 39.4644
rfoot 15.2158 5.49566
rtoes -33.6763
lfemur -18.2632 9.29757 -15.7794
ltibia 31.8327
lfoot 19.2137 -3.06066
ltoes -14.5488
50
root 5.13316 24.3127 5.64394 5.36554 -1.24797 360.25
lowerback 7.76668 0.848696 2.27875
upperback 11.1672 1.11987 1.18938
thorax 7.41432 0.675269 -0.0329202
lowerneck 12.4505 -2.20681 -0.208799
upperneck 18.201 -3.00609 0.946615
head 3.89785 -1.43533 0.365743
rclavicle 2.50469e-014 1.74931e-014
rhumerus -40.3925 -14.3415 -82.3005
rradius 83.9315
rwrist -1.68903
rhand -32.1987 31.1918
rfingers 7.12502
rthumb -5.44061 1.28166
lclavicle 2.50469e-014 1.74931e-014
lhumerus -37.3803 -22.8481 88.9752
lradius 72.7499
lwrist 1.08799
lhand -45.2067 -24.9646
lfingers 7.12502
lthumb -17.9825 4.22403
rfemur -25.7031 -7.99357 14.4593
rtibia 39.024
rfoot 14.8406 5.71758
rtoes -33.8012
lfemur -19.5333 9.74868 -16.1405
ltibia 31.4759
lfoot 18.8079 -3.28582
ltoes -14.8821
51
root 5.13708 24.2927 5.78555 5.86137 -1.35912 360.312
lowerback 7.99819 0.831338 2.17928
upperback 11.5321 1.09175 1.19096
thorax 7.68744 0.656312 0.0272066
lowerneck 12.5074 -2.22262 -0.0336399
upperneck 17.6834 -2.96491 0.595128
head 3.68611 -1.41633 0.222292
rclavicle 5.56597e-015 -7.95139e-016
rhumerus -39.7017 -14.4096 -82.5976
rradius 81.9146
rwrist -2.07909
rhand -31.9446 31.3123
rfingers 7.12502
rthumb -5.19522 1.39598
lclavicle 5.56597e-015 -7.95139e-016
lhumerus -37.0409 -22.7042 89.0093
lradius 71.4614
lwrist 1.04672
lhand -45.2303 -25.2199
lfingers 7.12502
lthumb -18.0052 3.96672
rfemur -27.1545 -8.03068 14.6662
rtibia 38.5467
rfoot 14.5731 6.03629
rtoes -33.376
lfemur -21.0016 10.2039 -16.5429
ltibia 31.1819
lfoot 18.608 -3.68604
ltoes -15.9258
52
root 5.14042 24.2579 5.92964 6.55157 -1.44788 360.356
lowerback 8.07508 0.809662 2.12941
upperback 11.789 1.05851 1.16424
thorax 7.93077 0.639091 0.03071
lowerneck 12.3152 -2.23804 0.18312
upperneck 17.3807 -2.92357 0.223008
head 3.5964 -1.39364 0.0621958
rclavicle -3.57812e-015 -2.78299e-015
rhumerus -39.1045 -14.4985 -82.9137
rradius 79.9522
rwrist -2.33518
rhand -31.7024 31.2495
rfingers 7.12502
rthumb -4.96136 1.32762
lclavicle -3.57812e-015 -2.78299e-015
lhumerus -36.9453 -22.494 89.0519
lradius 70.3599
lwrist 1.02899
lhand -45.1001 -25.4055
lfingers 7.12502
lthumb -17.8799 3.79254
rfemur -28.7466 -8.13363 14.9229
rtibia 38.0577
rfoot 14.5231 6.32064
rtoes -32.3341
lfemur -22.736 10.7024 -16.9792
ltibia 30.9631
lfoot 18.5071 -4.30173
ltoes -17.7961
